<?xml version="1.0" encoding="UTF-8" standalone="no"?>
<!DOCTYPE svg PUBLIC "-//W3C//DTD SVG 1.1//EN"
 "http://www.w3.org/Graphics/SVG/1.1/DTD/svg11.dtd">
<!-- Generated by graphviz version 2.43.0 (0)
 -->
<!-- Title: %3 Pages: 1 -->
<svg width="1224pt" height="238pt"
 viewBox="0.00 0.00 1224.00 237.74" xmlns="http://www.w3.org/2000/svg" xmlns:xlink="http://www.w3.org/1999/xlink">
<g id="graph0" class="graph" transform="scale(1 1) rotate(0) translate(36 201.74)">
<title>%3</title>
<polygon fill="dimgray" stroke="transparent" points="-36,36 -36,-201.74 1188,-201.74 1188,36 -36,36"/>
<text text-anchor="middle" x="576" y="-150.54" font-family="Helvetica,sans-Serif" font-size="14.00">Sweep&#39;s Plan &amp; Progress</text>
<!-- start -->
<g id="node1" class="node">
<title>start</title>
</g>
<!-- 50bb7ca0&#45;f29e&#45;4267&#45;87da&#45;e2db9ed72d8c -->
<g id="node3" class="node">
<title>50bb7ca0&#45;f29e&#45;4267&#45;87da&#45;e2db9ed72d8c</title>
<ellipse fill="yellow" stroke="black" cx="267.5" cy="-99.87" rx="214.92" ry="26.74"/>
<text text-anchor="middle" x="267.5" y="-103.67" font-family="Helvetica,sans-Serif" font-size="14.00">⋯ Create</text>
<text text-anchor="middle" x="267.5" y="-88.67" font-family="Helvetica,sans-Serif" font-size="14.00">src/components/AnnotationTogglePanel.js</text>
</g>
<!-- start&#45;&gt;50bb7ca0&#45;f29e&#45;4267&#45;87da&#45;e2db9ed72d8c -->
<g id="edge6" class="edge">
<title>start&#45;&gt;50bb7ca0&#45;f29e&#45;4267&#45;87da&#45;e2db9ed72d8c</title>
<path fill="none" stroke="black" d="M1.27,-99.87C4.81,-99.87 20.38,-99.87 42.36,-99.87"/>
<polygon fill="black" stroke="black" points="42.51,-103.37 52.51,-99.87 42.51,-96.37 42.51,-103.37"/>
<text text-anchor="middle" x="26.77" y="-106.67" font-family="Helvetica,sans-Serif" font-size="14.00">Start</text>
</g>
<!-- end -->
<g id="node2" class="node">
<title>end</title>
</g>
<!-- b977724e&#45;6457&#45;4580&#45;9951&#45;4051979fa606 -->
<g id="node4" class="node">
<title>b977724e&#45;6457&#45;4580&#45;9951&#45;4051979fa606</title>
<ellipse fill="white" stroke="black" cx="605.5" cy="-99.87" rx="60.21" ry="26.74"/>
<text text-anchor="middle" x="605.5" y="-103.67" font-family="Helvetica,sans-Serif" font-size="14.00">▶ Modify</text>
<text text-anchor="middle" x="605.5" y="-88.67" font-family="Helvetica,sans-Serif" font-size="14.00">src/App.js</text>
</g>
<!-- 50bb7ca0&#45;f29e&#45;4267&#45;87da&#45;e2db9ed72d8c&#45;&gt;b977724e&#45;6457&#45;4580&#45;9951&#45;4051979fa606 -->
<g id="edge2" class="edge">
<title>50bb7ca0&#45;f29e&#45;4267&#45;87da&#45;e2db9ed72d8c&#45;&gt;b977724e&#45;6457&#45;4580&#45;9951&#45;4051979fa606</title>
<path fill="none" stroke="black" d="M482.71,-99.87C500.09,-99.87 517.46,-99.87 534.83,-99.87"/>
<polygon fill="black" stroke="black" points="535.06,-103.37 545.06,-99.87 535.06,-96.37 535.06,-103.37"/>
</g>
<!-- 203f1514&#45;d1ea&#45;46a4&#45;a4ef&#45;3f32a88cd6ae -->
<g id="node6" class="node">
<title>203f1514&#45;d1ea&#45;46a4&#45;a4ef&#45;3f32a88cd6ae</title>
<polygon fill="white" stroke="black" points="468.5,-36 12.5,-36 12.5,0 468.5,0 468.5,-36"/>
<text text-anchor="middle" x="240.5" y="-14.3" font-family="Helvetica,sans-Serif" font-size="14.00">▶ Ran sandbox for `src/components/AnnotationTogglePanel.js`.</text>
</g>
<!-- 50bb7ca0&#45;f29e&#45;4267&#45;87da&#45;e2db9ed72d8c&#45;&gt;203f1514&#45;d1ea&#45;46a4&#45;a4ef&#45;3f32a88cd6ae -->
<g id="edge1" class="edge">
<title>50bb7ca0&#45;f29e&#45;4267&#45;87da&#45;e2db9ed72d8c&#45;&gt;203f1514&#45;d1ea&#45;46a4&#45;a4ef&#45;3f32a88cd6ae</title>
<path fill="none" stroke="black" stroke-dasharray="5,2" d="M258.66,-72.72C255.74,-64.08 252.49,-54.47 249.56,-45.79"/>
<polygon fill="black" stroke="black" points="252.81,-44.5 246.3,-36.15 246.18,-46.74 252.81,-44.5"/>
</g>
<!-- 400f2d0a&#45;1373&#45;4479&#45;8d04&#45;708936d5e43e -->
<g id="node5" class="node">
<title>400f2d0a&#45;1373&#45;4479&#45;8d04&#45;708936d5e43e</title>
<ellipse fill="white" stroke="black" cx="913.5" cy="-99.87" rx="179.71" ry="26.74"/>
<text text-anchor="middle" x="913.5" y="-103.67" font-family="Helvetica,sans-Serif" font-size="14.00">▶ Create</text>
<text text-anchor="middle" x="913.5" y="-88.67" font-family="Helvetica,sans-Serif" font-size="14.00">src/components/GenomeDisplay.js</text>
</g>
<!-- b977724e&#45;6457&#45;4580&#45;9951&#45;4051979fa606&#45;&gt;400f2d0a&#45;1373&#45;4479&#45;8d04&#45;708936d5e43e -->
<g id="edge4" class="edge">
<title>b977724e&#45;6457&#45;4580&#45;9951&#45;4051979fa606&#45;&gt;400f2d0a&#45;1373&#45;4479&#45;8d04&#45;708936d5e43e</title>
<path fill="none" stroke="black" d="M665.66,-99.87C684.89,-99.87 704.13,-99.87 723.37,-99.87"/>
<polygon fill="black" stroke="black" points="723.43,-103.37 733.43,-99.87 723.43,-96.37 723.43,-103.37"/>
</g>
<!-- 50f6034b&#45;ca3f&#45;432d&#45;8d2b&#45;55f77a29c8d3 -->
<g id="node7" class="node">
<title>50f6034b&#45;ca3f&#45;432d&#45;8d2b&#45;55f77a29c8d3</title>
<polygon fill="white" stroke="black" points="724,-36 487,-36 487,0 724,0 724,-36"/>
<text text-anchor="middle" x="605.5" y="-14.3" font-family="Helvetica,sans-Serif" font-size="14.00">▶ Ran sandbox for `src/App.js`.</text>
</g>
<!-- b977724e&#45;6457&#45;4580&#45;9951&#45;4051979fa606&#45;&gt;50f6034b&#45;ca3f&#45;432d&#45;8d2b&#45;55f77a29c8d3 -->
<g id="edge3" class="edge">
<title>b977724e&#45;6457&#45;4580&#45;9951&#45;4051979fa606&#45;&gt;50f6034b&#45;ca3f&#45;432d&#45;8d2b&#45;55f77a29c8d3</title>
<path fill="none" stroke="black" stroke-dasharray="5,2" d="M605.5,-72.72C605.5,-64.27 605.5,-54.89 605.5,-46.36"/>
<polygon fill="black" stroke="black" points="609,-46.15 605.5,-36.15 602,-46.15 609,-46.15"/>
</g>
<!-- 400f2d0a&#45;1373&#45;4479&#45;8d04&#45;708936d5e43e&#45;&gt;end -->
<g id="edge7" class="edge">
<title>400f2d0a&#45;1373&#45;4479&#45;8d04&#45;708936d5e43e&#45;&gt;end</title>
<path fill="none" stroke="black" d="M1093.28,-99.87C1113.44,-99.87 1130.42,-99.87 1140.75,-99.87"/>
<polygon fill="black" stroke="black" points="1140.86,-103.37 1150.86,-99.87 1140.86,-96.37 1140.86,-103.37"/>
<text text-anchor="middle" x="1122.05" y="-106.67" font-family="Helvetica,sans-Serif" font-size="14.00">Finish</text>
</g>
<!-- 661305f9&#45;1859&#45;4fa4&#45;9f59&#45;388db849dab3 -->
<g id="node8" class="node">
<title>661305f9&#45;1859&#45;4fa4&#45;9f59&#45;388db849dab3</title>
<polygon fill="white" stroke="black" points="1148.5,-36 742.5,-36 742.5,0 1148.5,0 1148.5,-36"/>
<text text-anchor="middle" x="945.5" y="-14.3" font-family="Helvetica,sans-Serif" font-size="14.00">▶ Ran sandbox for `src/components/GenomeDisplay.js`.</text>
</g>
<!-- 400f2d0a&#45;1373&#45;4479&#45;8d04&#45;708936d5e43e&#45;&gt;661305f9&#45;1859&#45;4fa4&#45;9f59&#45;388db849dab3 -->
<g id="edge5" class="edge">
<title>400f2d0a&#45;1373&#45;4479&#45;8d04&#45;708936d5e43e&#45;&gt;661305f9&#45;1859&#45;4fa4&#45;9f59&#45;388db849dab3</title>
<path fill="none" stroke="black" stroke-dasharray="5,2" d="M923.98,-72.72C927.47,-63.99 931.37,-54.26 934.88,-45.51"/>
<polygon fill="black" stroke="black" points="938.16,-46.73 938.63,-36.15 931.66,-44.13 938.16,-46.73"/>
</g>
</g>
</svg>
