<?xml version="1.0" encoding="UTF-8" standalone="no"?>
<!DOCTYPE svg PUBLIC "-//W3C//DTD SVG 1.1//EN"
 "http://www.w3.org/Graphics/SVG/1.1/DTD/svg11.dtd">
<!-- Generated by graphviz version 2.43.0 (0)
 -->
<!-- Title: %3 Pages: 1 -->
<svg width="1467pt" height="415pt"
 viewBox="0.00 0.00 1467.00 415.48" xmlns="http://www.w3.org/2000/svg" xmlns:xlink="http://www.w3.org/1999/xlink">
<g id="graph0" class="graph" transform="scale(1 1) rotate(0) translate(36 379.48)">
<title>%3</title>
<polygon fill="dimgray" stroke="transparent" points="-36,36 -36,-379.48 1431,-379.48 1431,36 -36,36"/>
<text text-anchor="middle" x="697.5" y="-328.28" font-family="Helvetica,sans-Serif" font-size="14.00">Sweep&#39;s Plan &amp; Progress</text>
<!-- start -->
<g id="node1" class="node">
<title>start</title>
</g>
<!-- 50bb7ca0&#45;f29e&#45;4267&#45;87da&#45;e2db9ed72d8c -->
<g id="node3" class="node">
<title>50bb7ca0&#45;f29e&#45;4267&#45;87da&#45;e2db9ed72d8c</title>
<ellipse fill="#0ee832" stroke="black" cx="349" cy="-277.61" rx="214.92" ry="26.74"/>
<text text-anchor="middle" x="349" y="-281.41" font-family="Helvetica,sans-Serif" font-size="14.00">✓ Create</text>
<text text-anchor="middle" x="349" y="-266.41" font-family="Helvetica,sans-Serif" font-size="14.00">src/components/AnnotationTogglePanel.js</text>
</g>
<!-- start&#45;&gt;50bb7ca0&#45;f29e&#45;4267&#45;87da&#45;e2db9ed72d8c -->
<g id="edge9" class="edge">
<title>start&#45;&gt;50bb7ca0&#45;f29e&#45;4267&#45;87da&#45;e2db9ed72d8c</title>
<path fill="none" stroke="black" d="M82.77,-277.61C86.31,-277.61 101.88,-277.61 123.86,-277.61"/>
<polygon fill="black" stroke="black" points="124.01,-281.11 134.01,-277.61 124.01,-274.11 124.01,-281.11"/>
<text text-anchor="middle" x="108.27" y="-284.41" font-family="Helvetica,sans-Serif" font-size="14.00">Start</text>
</g>
<!-- end -->
<g id="node2" class="node">
<title>end</title>
</g>
<!-- b977724e&#45;6457&#45;4580&#45;9951&#45;4051979fa606 -->
<g id="node4" class="node">
<title>b977724e&#45;6457&#45;4580&#45;9951&#45;4051979fa606</title>
<ellipse fill="#0ee832" stroke="black" cx="781" cy="-277.61" rx="60.21" ry="26.74"/>
<text text-anchor="middle" x="781" y="-281.41" font-family="Helvetica,sans-Serif" font-size="14.00">✓ Modify</text>
<text text-anchor="middle" x="781" y="-266.41" font-family="Helvetica,sans-Serif" font-size="14.00">src/App.js</text>
</g>
<!-- 50bb7ca0&#45;f29e&#45;4267&#45;87da&#45;e2db9ed72d8c&#45;&gt;b977724e&#45;6457&#45;4580&#45;9951&#45;4051979fa606 -->
<g id="edge2" class="edge">
<title>50bb7ca0&#45;f29e&#45;4267&#45;87da&#45;e2db9ed72d8c&#45;&gt;b977724e&#45;6457&#45;4580&#45;9951&#45;4051979fa606</title>
<path fill="none" stroke="black" d="M564.16,-277.61C613.02,-277.61 661.89,-277.61 710.76,-277.61"/>
<polygon fill="black" stroke="black" points="710.86,-281.11 720.86,-277.61 710.86,-274.11 710.86,-281.11"/>
</g>
<!-- 203f1514&#45;d1ea&#45;46a4&#45;a4ef&#45;3f32a88cd6ae -->
<g id="node6" class="node">
<title>203f1514&#45;d1ea&#45;46a4&#45;a4ef&#45;3f32a88cd6ae</title>
<polygon fill="#0ee832" stroke="black" points="458,-213.74 0,-213.74 0,-177.74 458,-177.74 458,-213.74"/>
<text text-anchor="middle" x="229" y="-192.04" font-family="Helvetica,sans-Serif" font-size="14.00">✓ Ran sandbox for `src/components/AnnotationTogglePanel.js`.</text>
</g>
<!-- 50bb7ca0&#45;f29e&#45;4267&#45;87da&#45;e2db9ed72d8c&#45;&gt;203f1514&#45;d1ea&#45;46a4&#45;a4ef&#45;3f32a88cd6ae -->
<g id="edge1" class="edge">
<title>50bb7ca0&#45;f29e&#45;4267&#45;87da&#45;e2db9ed72d8c&#45;&gt;203f1514&#45;d1ea&#45;46a4&#45;a4ef&#45;3f32a88cd6ae</title>
<path fill="none" stroke="black" stroke-dasharray="5,2" d="M310.7,-251.12C295.45,-240.97 278.04,-229.38 263.21,-219.51"/>
<polygon fill="black" stroke="black" points="265.09,-216.55 254.82,-213.93 261.21,-222.38 265.09,-216.55"/>
</g>
<!-- 400f2d0a&#45;1373&#45;4479&#45;8d04&#45;708936d5e43e -->
<g id="node5" class="node">
<title>400f2d0a&#45;1373&#45;4479&#45;8d04&#45;708936d5e43e</title>
<ellipse fill="white" stroke="black" cx="1124" cy="-277.61" rx="179.71" ry="26.74"/>
<text text-anchor="middle" x="1124" y="-281.41" font-family="Helvetica,sans-Serif" font-size="14.00">▶ Create</text>
<text text-anchor="middle" x="1124" y="-266.41" font-family="Helvetica,sans-Serif" font-size="14.00">src/components/GenomeDisplay.js</text>
</g>
<!-- b977724e&#45;6457&#45;4580&#45;9951&#45;4051979fa606&#45;&gt;400f2d0a&#45;1373&#45;4479&#45;8d04&#45;708936d5e43e -->
<g id="edge7" class="edge">
<title>b977724e&#45;6457&#45;4580&#45;9951&#45;4051979fa606&#45;&gt;400f2d0a&#45;1373&#45;4479&#45;8d04&#45;708936d5e43e</title>
<path fill="none" stroke="black" d="M841.29,-277.61C872.27,-277.61 903.24,-277.61 934.21,-277.61"/>
<polygon fill="black" stroke="black" points="934.27,-281.11 944.27,-277.61 934.27,-274.11 934.27,-281.11"/>
</g>
<!-- 50f6034b&#45;ca3f&#45;432d&#45;8d2b&#45;55f77a29c8d3 -->
<g id="node7" class="node">
<title>50f6034b&#45;ca3f&#45;432d&#45;8d2b&#45;55f77a29c8d3</title>
<polygon fill="#ee0000" stroke="black" points="715.5,-213.74 476.5,-213.74 476.5,-177.74 715.5,-177.74 715.5,-213.74"/>
<text text-anchor="middle" x="596" y="-192.04" font-family="Helvetica,sans-Serif" font-size="14.00">✗ Ran sandbox for `src/App.js`.</text>
</g>
<!-- b977724e&#45;6457&#45;4580&#45;9951&#45;4051979fa606&#45;&gt;50f6034b&#45;ca3f&#45;432d&#45;8d2b&#45;55f77a29c8d3 -->
<g id="edge3" class="edge">
<title>b977724e&#45;6457&#45;4580&#45;9951&#45;4051979fa606&#45;&gt;50f6034b&#45;ca3f&#45;432d&#45;8d2b&#45;55f77a29c8d3</title>
<path fill="none" stroke="black" stroke-dasharray="5,2" d="M738.56,-258.29C710.55,-246.19 673.77,-230.32 644.59,-217.72"/>
<polygon fill="black" stroke="black" points="645.97,-214.5 635.4,-213.75 643.19,-220.93 645.97,-214.5"/>
</g>
<!-- 0ed3a055&#45;7aa9&#45;4f25&#45;b228&#45;e154d020db7b -->
<g id="node8" class="node">
<title>0ed3a055&#45;7aa9&#45;4f25&#45;b228&#45;e154d020db7b</title>
<polygon fill="white" stroke="black" points="970.5,-213.74 733.5,-213.74 733.5,-177.74 970.5,-177.74 970.5,-213.74"/>
<text text-anchor="middle" x="852" y="-192.04" font-family="Helvetica,sans-Serif" font-size="14.00">▶ Ran sandbox for `src/App.js`.</text>
</g>
<!-- b977724e&#45;6457&#45;4580&#45;9951&#45;4051979fa606&#45;&gt;0ed3a055&#45;7aa9&#45;4f25&#45;b228&#45;e154d020db7b -->
<g id="edge6" class="edge">
<title>b977724e&#45;6457&#45;4580&#45;9951&#45;4051979fa606&#45;&gt;0ed3a055&#45;7aa9&#45;4f25&#45;b228&#45;e154d020db7b</title>
<path fill="none" stroke="black" stroke-dasharray="5,2" d="M802.69,-252.21C811.38,-242.44 821.37,-231.19 830.08,-221.4"/>
<polygon fill="black" stroke="black" points="832.72,-223.7 836.74,-213.9 827.48,-219.05 832.72,-223.7"/>
</g>
<!-- 400f2d0a&#45;1373&#45;4479&#45;8d04&#45;708936d5e43e&#45;&gt;end -->
<g id="edge10" class="edge">
<title>400f2d0a&#45;1373&#45;4479&#45;8d04&#45;708936d5e43e&#45;&gt;end</title>
<path fill="none" stroke="black" d="M1303.78,-277.61C1323.94,-277.61 1340.92,-277.61 1351.25,-277.61"/>
<polygon fill="black" stroke="black" points="1351.36,-281.11 1361.36,-277.61 1351.36,-274.11 1351.36,-281.11"/>
<text text-anchor="middle" x="1332.55" y="-284.41" font-family="Helvetica,sans-Serif" font-size="14.00">Finish</text>
</g>
<!-- 661305f9&#45;1859&#45;4fa4&#45;9f59&#45;388db849dab3 -->
<g id="node9" class="node">
<title>661305f9&#45;1859&#45;4fa4&#45;9f59&#45;388db849dab3</title>
<polygon fill="white" stroke="black" points="1395,-213.74 989,-213.74 989,-177.74 1395,-177.74 1395,-213.74"/>
<text text-anchor="middle" x="1192" y="-192.04" font-family="Helvetica,sans-Serif" font-size="14.00">▶ Ran sandbox for `src/components/GenomeDisplay.js`.</text>
</g>
<!-- 400f2d0a&#45;1373&#45;4479&#45;8d04&#45;708936d5e43e&#45;&gt;661305f9&#45;1859&#45;4fa4&#45;9f59&#45;388db849dab3 -->
<g id="edge8" class="edge">
<title>400f2d0a&#45;1373&#45;4479&#45;8d04&#45;708936d5e43e&#45;&gt;661305f9&#45;1859&#45;4fa4&#45;9f59&#45;388db849dab3</title>
<path fill="none" stroke="black" stroke-dasharray="5,2" d="M1145.89,-250.9C1153.82,-241.59 1162.76,-231.09 1170.64,-221.83"/>
<polygon fill="black" stroke="black" points="1173.42,-223.96 1177.24,-214.08 1168.09,-219.42 1173.42,-223.96"/>
</g>
<!-- 02e1186a&#45;aefd&#45;42f2&#45;8b03&#45;c1c62f44cef6 -->
<g id="node10" class="node">
<title>02e1186a&#45;aefd&#45;42f2&#45;8b03&#45;c1c62f44cef6</title>
<ellipse fill="#0ee832" stroke="black" cx="596" cy="-99.87" rx="60.21" ry="26.74"/>
<text text-anchor="middle" x="596" y="-103.67" font-family="Helvetica,sans-Serif" font-size="14.00">✓ Modify</text>
<text text-anchor="middle" x="596" y="-88.67" font-family="Helvetica,sans-Serif" font-size="14.00">src/App.js</text>
</g>
<!-- 50f6034b&#45;ca3f&#45;432d&#45;8d2b&#45;55f77a29c8d3&#45;&gt;02e1186a&#45;aefd&#45;42f2&#45;8b03&#45;c1c62f44cef6 -->
<g id="edge4" class="edge">
<title>50f6034b&#45;ca3f&#45;432d&#45;8d2b&#45;55f77a29c8d3&#45;&gt;02e1186a&#45;aefd&#45;42f2&#45;8b03&#45;c1c62f44cef6</title>
<path fill="none" stroke="black" d="M596,-177.52C596,-166.22 596,-151.01 596,-137.12"/>
<polygon fill="black" stroke="black" points="599.5,-136.84 596,-126.84 592.5,-136.84 599.5,-136.84"/>
<text text-anchor="middle" x="693.5" y="-148.54" font-family="Helvetica,sans-Serif" font-size="14.00">Additional changes required</text>
</g>
<!-- 4c1a6759&#45;b362&#45;4e69&#45;a78a&#45;ec362b0a14bc -->
<g id="node11" class="node">
<title>4c1a6759&#45;b362&#45;4e69&#45;a78a&#45;ec362b0a14bc</title>
<polygon fill="yellow" stroke="black" points="716.5,-36 475.5,-36 475.5,0 716.5,0 716.5,-36"/>
<text text-anchor="middle" x="596" y="-14.3" font-family="Helvetica,sans-Serif" font-size="14.00">⋯ Ran sandbox for `src/App.js`.</text>
</g>
<!-- 02e1186a&#45;aefd&#45;42f2&#45;8b03&#45;c1c62f44cef6&#45;&gt;4c1a6759&#45;b362&#45;4e69&#45;a78a&#45;ec362b0a14bc -->
<g id="edge5" class="edge">
<title>02e1186a&#45;aefd&#45;42f2&#45;8b03&#45;c1c62f44cef6&#45;&gt;4c1a6759&#45;b362&#45;4e69&#45;a78a&#45;ec362b0a14bc</title>
<path fill="none" stroke="black" stroke-dasharray="5,2" d="M596,-72.72C596,-64.27 596,-54.89 596,-46.36"/>
<polygon fill="black" stroke="black" points="599.5,-46.15 596,-36.15 592.5,-46.15 599.5,-46.15"/>
</g>
</g>
</svg>
