<?xml version="1.0" encoding="UTF-8" standalone="no"?>
<!DOCTYPE svg PUBLIC "-//W3C//DTD SVG 1.1//EN"
 "http://www.w3.org/Graphics/SVG/1.1/DTD/svg11.dtd">
<!-- Generated by graphviz version 2.43.0 (0)
 -->
<!-- Title: %3 Pages: 1 -->
<svg width="1225pt" height="238pt"
 viewBox="0.00 0.00 1225.00 237.74" xmlns="http://www.w3.org/2000/svg" xmlns:xlink="http://www.w3.org/1999/xlink">
<g id="graph0" class="graph" transform="scale(1 1) rotate(0) translate(36 201.74)">
<title>%3</title>
<polygon fill="dimgray" stroke="transparent" points="-36,36 -36,-201.74 1189,-201.74 1189,36 -36,36"/>
<text text-anchor="middle" x="576.5" y="-150.54" font-family="Helvetica,sans-Serif" font-size="14.00">Sweep&#39;s Plan &amp; Progress</text>
<!-- start -->
<g id="node1" class="node">
<title>start</title>
</g>
<!-- 50bb7ca0&#45;f29e&#45;4267&#45;87da&#45;e2db9ed72d8c -->
<g id="node3" class="node">
<title>50bb7ca0&#45;f29e&#45;4267&#45;87da&#45;e2db9ed72d8c</title>
<ellipse fill="#0ee832" stroke="black" cx="267.5" cy="-99.87" rx="214.92" ry="26.74"/>
<text text-anchor="middle" x="267.5" y="-103.67" font-family="Helvetica,sans-Serif" font-size="14.00">✓ Create</text>
<text text-anchor="middle" x="267.5" y="-88.67" font-family="Helvetica,sans-Serif" font-size="14.00">src/components/AnnotationTogglePanel.js</text>
</g>
<!-- start&#45;&gt;50bb7ca0&#45;f29e&#45;4267&#45;87da&#45;e2db9ed72d8c -->
<g id="edge6" class="edge">
<title>start&#45;&gt;50bb7ca0&#45;f29e&#45;4267&#45;87da&#45;e2db9ed72d8c</title>
<path fill="none" stroke="black" d="M1.27,-99.87C4.81,-99.87 20.38,-99.87 42.36,-99.87"/>
<polygon fill="black" stroke="black" points="42.51,-103.37 52.51,-99.87 42.51,-96.37 42.51,-103.37"/>
<text text-anchor="middle" x="26.77" y="-106.67" font-family="Helvetica,sans-Serif" font-size="14.00">Start</text>
</g>
<!-- end -->
<g id="node2" class="node">
<title>end</title>
</g>
<!-- b977724e&#45;6457&#45;4580&#45;9951&#45;4051979fa606 -->
<g id="node4" class="node">
<title>b977724e&#45;6457&#45;4580&#45;9951&#45;4051979fa606</title>
<ellipse fill="white" stroke="black" cx="606.5" cy="-99.87" rx="60.21" ry="26.74"/>
<text text-anchor="middle" x="606.5" y="-103.67" font-family="Helvetica,sans-Serif" font-size="14.00">▶ Modify</text>
<text text-anchor="middle" x="606.5" y="-88.67" font-family="Helvetica,sans-Serif" font-size="14.00">src/App.js</text>
</g>
<!-- 50bb7ca0&#45;f29e&#45;4267&#45;87da&#45;e2db9ed72d8c&#45;&gt;b977724e&#45;6457&#45;4580&#45;9951&#45;4051979fa606 -->
<g id="edge2" class="edge">
<title>50bb7ca0&#45;f29e&#45;4267&#45;87da&#45;e2db9ed72d8c&#45;&gt;b977724e&#45;6457&#45;4580&#45;9951&#45;4051979fa606</title>
<path fill="none" stroke="black" d="M482.69,-99.87C500.34,-99.87 517.99,-99.87 535.65,-99.87"/>
<polygon fill="black" stroke="black" points="536.04,-103.37 546.04,-99.87 536.04,-96.37 536.04,-103.37"/>
</g>
<!-- 203f1514&#45;d1ea&#45;46a4&#45;a4ef&#45;3f32a88cd6ae -->
<g id="node6" class="node">
<title>203f1514&#45;d1ea&#45;46a4&#45;a4ef&#45;3f32a88cd6ae</title>
<polygon fill="yellow" stroke="black" points="469.5,-36 9.5,-36 9.5,0 469.5,0 469.5,-36"/>
<text text-anchor="middle" x="239.5" y="-14.3" font-family="Helvetica,sans-Serif" font-size="14.00">⋯ Ran sandbox for `src/components/AnnotationTogglePanel.js`.</text>
</g>
<!-- 50bb7ca0&#45;f29e&#45;4267&#45;87da&#45;e2db9ed72d8c&#45;&gt;203f1514&#45;d1ea&#45;46a4&#45;a4ef&#45;3f32a88cd6ae -->
<g id="edge1" class="edge">
<title>50bb7ca0&#45;f29e&#45;4267&#45;87da&#45;e2db9ed72d8c&#45;&gt;203f1514&#45;d1ea&#45;46a4&#45;a4ef&#45;3f32a88cd6ae</title>
<path fill="none" stroke="black" stroke-dasharray="5,2" d="M258.33,-72.72C255.31,-64.08 251.94,-54.47 248.89,-45.79"/>
<polygon fill="black" stroke="black" points="252.12,-44.43 245.51,-36.15 245.52,-46.74 252.12,-44.43"/>
</g>
<!-- 400f2d0a&#45;1373&#45;4479&#45;8d04&#45;708936d5e43e -->
<g id="node5" class="node">
<title>400f2d0a&#45;1373&#45;4479&#45;8d04&#45;708936d5e43e</title>
<ellipse fill="white" stroke="black" cx="914.5" cy="-99.87" rx="179.71" ry="26.74"/>
<text text-anchor="middle" x="914.5" y="-103.67" font-family="Helvetica,sans-Serif" font-size="14.00">▶ Create</text>
<text text-anchor="middle" x="914.5" y="-88.67" font-family="Helvetica,sans-Serif" font-size="14.00">src/components/GenomeDisplay.js</text>
</g>
<!-- b977724e&#45;6457&#45;4580&#45;9951&#45;4051979fa606&#45;&gt;400f2d0a&#45;1373&#45;4479&#45;8d04&#45;708936d5e43e -->
<g id="edge4" class="edge">
<title>b977724e&#45;6457&#45;4580&#45;9951&#45;4051979fa606&#45;&gt;400f2d0a&#45;1373&#45;4479&#45;8d04&#45;708936d5e43e</title>
<path fill="none" stroke="black" d="M666.66,-99.87C685.89,-99.87 705.13,-99.87 724.37,-99.87"/>
<polygon fill="black" stroke="black" points="724.43,-103.37 734.43,-99.87 724.43,-96.37 724.43,-103.37"/>
</g>
<!-- 50f6034b&#45;ca3f&#45;432d&#45;8d2b&#45;55f77a29c8d3 -->
<g id="node7" class="node">
<title>50f6034b&#45;ca3f&#45;432d&#45;8d2b&#45;55f77a29c8d3</title>
<polygon fill="white" stroke="black" points="725,-36 488,-36 488,0 725,0 725,-36"/>
<text text-anchor="middle" x="606.5" y="-14.3" font-family="Helvetica,sans-Serif" font-size="14.00">▶ Ran sandbox for `src/App.js`.</text>
</g>
<!-- b977724e&#45;6457&#45;4580&#45;9951&#45;4051979fa606&#45;&gt;50f6034b&#45;ca3f&#45;432d&#45;8d2b&#45;55f77a29c8d3 -->
<g id="edge3" class="edge">
<title>b977724e&#45;6457&#45;4580&#45;9951&#45;4051979fa606&#45;&gt;50f6034b&#45;ca3f&#45;432d&#45;8d2b&#45;55f77a29c8d3</title>
<path fill="none" stroke="black" stroke-dasharray="5,2" d="M606.5,-72.72C606.5,-64.27 606.5,-54.89 606.5,-46.36"/>
<polygon fill="black" stroke="black" points="610,-46.15 606.5,-36.15 603,-46.15 610,-46.15"/>
</g>
<!-- 400f2d0a&#45;1373&#45;4479&#45;8d04&#45;708936d5e43e&#45;&gt;end -->
<g id="edge7" class="edge">
<title>400f2d0a&#45;1373&#45;4479&#45;8d04&#45;708936d5e43e&#45;&gt;end</title>
<path fill="none" stroke="black" d="M1094.28,-99.87C1114.44,-99.87 1131.42,-99.87 1141.75,-99.87"/>
<polygon fill="black" stroke="black" points="1141.86,-103.37 1151.86,-99.87 1141.86,-96.37 1141.86,-103.37"/>
<text text-anchor="middle" x="1123.05" y="-106.67" font-family="Helvetica,sans-Serif" font-size="14.00">Finish</text>
</g>
<!-- 661305f9&#45;1859&#45;4fa4&#45;9f59&#45;388db849dab3 -->
<g id="node8" class="node">
<title>661305f9&#45;1859&#45;4fa4&#45;9f59&#45;388db849dab3</title>
<polygon fill="white" stroke="black" points="1149.5,-36 743.5,-36 743.5,0 1149.5,0 1149.5,-36"/>
<text text-anchor="middle" x="946.5" y="-14.3" font-family="Helvetica,sans-Serif" font-size="14.00">▶ Ran sandbox for `src/components/GenomeDisplay.js`.</text>
</g>
<!-- 400f2d0a&#45;1373&#45;4479&#45;8d04&#45;708936d5e43e&#45;&gt;661305f9&#45;1859&#45;4fa4&#45;9f59&#45;388db849dab3 -->
<g id="edge5" class="edge">
<title>400f2d0a&#45;1373&#45;4479&#45;8d04&#45;708936d5e43e&#45;&gt;661305f9&#45;1859&#45;4fa4&#45;9f59&#45;388db849dab3</title>
<path fill="none" stroke="black" stroke-dasharray="5,2" d="M924.98,-72.72C928.47,-63.99 932.37,-54.26 935.88,-45.51"/>
<polygon fill="black" stroke="black" points="939.16,-46.73 939.63,-36.15 932.66,-44.13 939.16,-46.73"/>
</g>
</g>
</svg>
