<?xml version="1.0" encoding="UTF-8" standalone="no"?>
<!DOCTYPE svg PUBLIC "-//W3C//DTD SVG 1.1//EN"
 "http://www.w3.org/Graphics/SVG/1.1/DTD/svg11.dtd">
<!-- Generated by graphviz version 2.43.0 (0)
 -->
<!-- Title: %3 Pages: 1 -->
<svg width="1473pt" height="415pt"
 viewBox="0.00 0.00 1473.00 415.48" xmlns="http://www.w3.org/2000/svg" xmlns:xlink="http://www.w3.org/1999/xlink">
<g id="graph0" class="graph" transform="scale(1 1) rotate(0) translate(36 379.48)">
<title>%3</title>
<polygon fill="dimgray" stroke="transparent" points="-36,36 -36,-379.48 1437,-379.48 1437,36 -36,36"/>
<text text-anchor="middle" x="700.5" y="-328.28" font-family="Helvetica,sans-Serif" font-size="14.00">Sweep&#39;s Plan &amp; Progress</text>
<!-- start -->
<g id="node1" class="node">
<title>start</title>
</g>
<!-- 50bb7ca0&#45;f29e&#45;4267&#45;87da&#45;e2db9ed72d8c -->
<g id="node3" class="node">
<title>50bb7ca0&#45;f29e&#45;4267&#45;87da&#45;e2db9ed72d8c</title>
<ellipse fill="#0ee832" stroke="black" cx="350" cy="-277.61" rx="214.92" ry="26.74"/>
<text text-anchor="middle" x="350" y="-281.41" font-family="Helvetica,sans-Serif" font-size="14.00">✓ Create</text>
<text text-anchor="middle" x="350" y="-266.41" font-family="Helvetica,sans-Serif" font-size="14.00">src/components/AnnotationTogglePanel.js</text>
</g>
<!-- start&#45;&gt;50bb7ca0&#45;f29e&#45;4267&#45;87da&#45;e2db9ed72d8c -->
<g id="edge9" class="edge">
<title>start&#45;&gt;50bb7ca0&#45;f29e&#45;4267&#45;87da&#45;e2db9ed72d8c</title>
<path fill="none" stroke="black" d="M83.77,-277.61C87.31,-277.61 102.88,-277.61 124.86,-277.61"/>
<polygon fill="black" stroke="black" points="125.01,-281.11 135.01,-277.61 125.01,-274.11 125.01,-281.11"/>
<text text-anchor="middle" x="109.27" y="-284.41" font-family="Helvetica,sans-Serif" font-size="14.00">Start</text>
</g>
<!-- end -->
<g id="node2" class="node">
<title>end</title>
</g>
<!-- b977724e&#45;6457&#45;4580&#45;9951&#45;4051979fa606 -->
<g id="node4" class="node">
<title>b977724e&#45;6457&#45;4580&#45;9951&#45;4051979fa606</title>
<ellipse fill="#0ee832" stroke="black" cx="782" cy="-277.61" rx="60.21" ry="26.74"/>
<text text-anchor="middle" x="782" y="-281.41" font-family="Helvetica,sans-Serif" font-size="14.00">✓ Modify</text>
<text text-anchor="middle" x="782" y="-266.41" font-family="Helvetica,sans-Serif" font-size="14.00">src/App.js</text>
</g>
<!-- 50bb7ca0&#45;f29e&#45;4267&#45;87da&#45;e2db9ed72d8c&#45;&gt;b977724e&#45;6457&#45;4580&#45;9951&#45;4051979fa606 -->
<g id="edge2" class="edge">
<title>50bb7ca0&#45;f29e&#45;4267&#45;87da&#45;e2db9ed72d8c&#45;&gt;b977724e&#45;6457&#45;4580&#45;9951&#45;4051979fa606</title>
<path fill="none" stroke="black" d="M565.16,-277.61C614.02,-277.61 662.89,-277.61 711.76,-277.61"/>
<polygon fill="black" stroke="black" points="711.86,-281.11 721.86,-277.61 711.86,-274.11 711.86,-281.11"/>
</g>
<!-- 203f1514&#45;d1ea&#45;46a4&#45;a4ef&#45;3f32a88cd6ae -->
<g id="node6" class="node">
<title>203f1514&#45;d1ea&#45;46a4&#45;a4ef&#45;3f32a88cd6ae</title>
<polygon fill="#0ee832" stroke="black" points="458,-213.74 0,-213.74 0,-177.74 458,-177.74 458,-213.74"/>
<text text-anchor="middle" x="229" y="-192.04" font-family="Helvetica,sans-Serif" font-size="14.00">✓ Ran sandbox for `src/components/AnnotationTogglePanel.js`.</text>
</g>
<!-- 50bb7ca0&#45;f29e&#45;4267&#45;87da&#45;e2db9ed72d8c&#45;&gt;203f1514&#45;d1ea&#45;46a4&#45;a4ef&#45;3f32a88cd6ae -->
<g id="edge1" class="edge">
<title>50bb7ca0&#45;f29e&#45;4267&#45;87da&#45;e2db9ed72d8c&#45;&gt;203f1514&#45;d1ea&#45;46a4&#45;a4ef&#45;3f32a88cd6ae</title>
<path fill="none" stroke="black" stroke-dasharray="5,2" d="M311.38,-251.12C296,-240.97 278.44,-229.38 263.5,-219.51"/>
<polygon fill="black" stroke="black" points="265.31,-216.52 255.04,-213.93 261.46,-222.36 265.31,-216.52"/>
</g>
<!-- 400f2d0a&#45;1373&#45;4479&#45;8d04&#45;708936d5e43e -->
<g id="node5" class="node">
<title>400f2d0a&#45;1373&#45;4479&#45;8d04&#45;708936d5e43e</title>
<ellipse fill="#0ee832" stroke="black" cx="1127" cy="-277.61" rx="179.71" ry="26.74"/>
<text text-anchor="middle" x="1127" y="-281.41" font-family="Helvetica,sans-Serif" font-size="14.00">✓ Create</text>
<text text-anchor="middle" x="1127" y="-266.41" font-family="Helvetica,sans-Serif" font-size="14.00">src/components/GenomeDisplay.js</text>
</g>
<!-- b977724e&#45;6457&#45;4580&#45;9951&#45;4051979fa606&#45;&gt;400f2d0a&#45;1373&#45;4479&#45;8d04&#45;708936d5e43e -->
<g id="edge7" class="edge">
<title>b977724e&#45;6457&#45;4580&#45;9951&#45;4051979fa606&#45;&gt;400f2d0a&#45;1373&#45;4479&#45;8d04&#45;708936d5e43e</title>
<path fill="none" stroke="black" d="M842.31,-277.61C873.83,-277.61 905.36,-277.61 936.89,-277.61"/>
<polygon fill="black" stroke="black" points="937.12,-281.11 947.12,-277.61 937.12,-274.11 937.12,-281.11"/>
</g>
<!-- 50f6034b&#45;ca3f&#45;432d&#45;8d2b&#45;55f77a29c8d3 -->
<g id="node7" class="node">
<title>50f6034b&#45;ca3f&#45;432d&#45;8d2b&#45;55f77a29c8d3</title>
<polygon fill="#ee0000" stroke="black" points="715.5,-213.74 476.5,-213.74 476.5,-177.74 715.5,-177.74 715.5,-213.74"/>
<text text-anchor="middle" x="596" y="-192.04" font-family="Helvetica,sans-Serif" font-size="14.00">✗ Ran sandbox for `src/App.js`.</text>
</g>
<!-- b977724e&#45;6457&#45;4580&#45;9951&#45;4051979fa606&#45;&gt;50f6034b&#45;ca3f&#45;432d&#45;8d2b&#45;55f77a29c8d3 -->
<g id="edge3" class="edge">
<title>b977724e&#45;6457&#45;4580&#45;9951&#45;4051979fa606&#45;&gt;50f6034b&#45;ca3f&#45;432d&#45;8d2b&#45;55f77a29c8d3</title>
<path fill="none" stroke="black" stroke-dasharray="5,2" d="M739.33,-258.29C711.17,-246.19 674.19,-230.32 644.85,-217.72"/>
<polygon fill="black" stroke="black" points="646.18,-214.48 635.61,-213.75 643.42,-220.91 646.18,-214.48"/>
</g>
<!-- 0ed3a055&#45;7aa9&#45;4f25&#45;b228&#45;e154d020db7b -->
<g id="node8" class="node">
<title>0ed3a055&#45;7aa9&#45;4f25&#45;b228&#45;e154d020db7b</title>
<polygon fill="#0ee832" stroke="black" points="972.5,-213.74 733.5,-213.74 733.5,-177.74 972.5,-177.74 972.5,-213.74"/>
<text text-anchor="middle" x="853" y="-192.04" font-family="Helvetica,sans-Serif" font-size="14.00">✓ Ran sandbox for `src/App.js`.</text>
</g>
<!-- b977724e&#45;6457&#45;4580&#45;9951&#45;4051979fa606&#45;&gt;0ed3a055&#45;7aa9&#45;4f25&#45;b228&#45;e154d020db7b -->
<g id="edge6" class="edge">
<title>b977724e&#45;6457&#45;4580&#45;9951&#45;4051979fa606&#45;&gt;0ed3a055&#45;7aa9&#45;4f25&#45;b228&#45;e154d020db7b</title>
<path fill="none" stroke="black" stroke-dasharray="5,2" d="M803.69,-252.21C812.38,-242.44 822.37,-231.19 831.08,-221.4"/>
<polygon fill="black" stroke="black" points="833.72,-223.7 837.74,-213.9 828.48,-219.05 833.72,-223.7"/>
</g>
<!-- 400f2d0a&#45;1373&#45;4479&#45;8d04&#45;708936d5e43e&#45;&gt;end -->
<g id="edge10" class="edge">
<title>400f2d0a&#45;1373&#45;4479&#45;8d04&#45;708936d5e43e&#45;&gt;end</title>
<path fill="none" stroke="black" d="M1306.78,-277.61C1326.94,-277.61 1343.92,-277.61 1354.25,-277.61"/>
<polygon fill="black" stroke="black" points="1354.36,-281.11 1364.36,-277.61 1354.36,-274.11 1354.36,-281.11"/>
<text text-anchor="middle" x="1335.55" y="-284.41" font-family="Helvetica,sans-Serif" font-size="14.00">Finish</text>
</g>
<!-- 661305f9&#45;1859&#45;4fa4&#45;9f59&#45;388db849dab3 -->
<g id="node9" class="node">
<title>661305f9&#45;1859&#45;4fa4&#45;9f59&#45;388db849dab3</title>
<polygon fill="yellow" stroke="black" points="1401,-213.74 991,-213.74 991,-177.74 1401,-177.74 1401,-213.74"/>
<text text-anchor="middle" x="1196" y="-192.04" font-family="Helvetica,sans-Serif" font-size="14.00">⋯ Ran sandbox for `src/components/GenomeDisplay.js`.</text>
</g>
<!-- 400f2d0a&#45;1373&#45;4479&#45;8d04&#45;708936d5e43e&#45;&gt;661305f9&#45;1859&#45;4fa4&#45;9f59&#45;388db849dab3 -->
<g id="edge8" class="edge">
<title>400f2d0a&#45;1373&#45;4479&#45;8d04&#45;708936d5e43e&#45;&gt;661305f9&#45;1859&#45;4fa4&#45;9f59&#45;388db849dab3</title>
<path fill="none" stroke="black" stroke-dasharray="5,2" d="M1149.21,-250.9C1157.26,-241.59 1166.33,-231.09 1174.32,-221.83"/>
<polygon fill="black" stroke="black" points="1177.13,-223.93 1181.02,-214.08 1171.84,-219.36 1177.13,-223.93"/>
</g>
<!-- 02e1186a&#45;aefd&#45;42f2&#45;8b03&#45;c1c62f44cef6 -->
<g id="node10" class="node">
<title>02e1186a&#45;aefd&#45;42f2&#45;8b03&#45;c1c62f44cef6</title>
<ellipse fill="#0ee832" stroke="black" cx="596" cy="-99.87" rx="60.21" ry="26.74"/>
<text text-anchor="middle" x="596" y="-103.67" font-family="Helvetica,sans-Serif" font-size="14.00">✓ Modify</text>
<text text-anchor="middle" x="596" y="-88.67" font-family="Helvetica,sans-Serif" font-size="14.00">src/App.js</text>
</g>
<!-- 50f6034b&#45;ca3f&#45;432d&#45;8d2b&#45;55f77a29c8d3&#45;&gt;02e1186a&#45;aefd&#45;42f2&#45;8b03&#45;c1c62f44cef6 -->
<g id="edge4" class="edge">
<title>50f6034b&#45;ca3f&#45;432d&#45;8d2b&#45;55f77a29c8d3&#45;&gt;02e1186a&#45;aefd&#45;42f2&#45;8b03&#45;c1c62f44cef6</title>
<path fill="none" stroke="black" d="M596,-177.52C596,-166.22 596,-151.01 596,-137.12"/>
<polygon fill="black" stroke="black" points="599.5,-136.84 596,-126.84 592.5,-136.84 599.5,-136.84"/>
<text text-anchor="middle" x="693.5" y="-148.54" font-family="Helvetica,sans-Serif" font-size="14.00">Additional changes required</text>
</g>
<!-- 4c1a6759&#45;b362&#45;4e69&#45;a78a&#45;ec362b0a14bc -->
<g id="node11" class="node">
<title>4c1a6759&#45;b362&#45;4e69&#45;a78a&#45;ec362b0a14bc</title>
<polygon fill="#0ee832" stroke="black" points="715.5,-36 476.5,-36 476.5,0 715.5,0 715.5,-36"/>
<text text-anchor="middle" x="596" y="-14.3" font-family="Helvetica,sans-Serif" font-size="14.00">✓ Ran sandbox for `src/App.js`.</text>
</g>
<!-- 02e1186a&#45;aefd&#45;42f2&#45;8b03&#45;c1c62f44cef6&#45;&gt;4c1a6759&#45;b362&#45;4e69&#45;a78a&#45;ec362b0a14bc -->
<g id="edge5" class="edge">
<title>02e1186a&#45;aefd&#45;42f2&#45;8b03&#45;c1c62f44cef6&#45;&gt;4c1a6759&#45;b362&#45;4e69&#45;a78a&#45;ec362b0a14bc</title>
<path fill="none" stroke="black" stroke-dasharray="5,2" d="M596,-72.72C596,-64.27 596,-54.89 596,-46.36"/>
<polygon fill="black" stroke="black" points="599.5,-46.15 596,-36.15 592.5,-46.15 599.5,-46.15"/>
</g>
</g>
</svg>
